<svg width="28" height="28" viewBox="0 0 28 28" fill="none" xmlns="http://www.w3.org/2000/svg">
<path fill-rule="evenodd" clip-rule="evenodd" d="M13.1274 0.978441C13.6822 0.883163 14.2492 0.883163 14.804 0.978441C15.432 1.0863 16.0229 1.35409 16.8772 1.74123C16.9142 1.75798 16.9516 1.77496 16.9896 1.79215L21.9801 4.05188C22.0178 4.06897 22.0551 4.08585 22.092 4.10254C23.0579 4.53947 23.7368 4.84658 24.3426 5.42017C24.818 5.87034 25.321 6.62041 25.5571 7.23113C25.8575 8.00834 25.8792 8.61672 25.9098 9.47519C25.9106 9.49882 25.9115 9.52265 25.9123 9.54667C26.0306 12.8405 25.5435 16.8086 23.8776 20.1585C22.1925 23.5467 19.2854 26.3159 14.6552 27.0278L14.6474 27.029C14.5 27.0516 14.3885 27.0688 14.2073 27.0799C14.0779 27.0878 13.8534 27.0878 13.724 27.0799C13.5428 27.0688 13.4313 27.0516 13.284 27.029L13.2761 27.0278C8.64593 26.3159 5.7388 23.5467 4.05377 20.1585C2.3878 16.8086 1.90078 12.8405 2.01902 9.54667C2.01988 9.52265 2.02073 9.49882 2.02158 9.47518C2.05219 8.61672 2.07389 8.00834 2.37426 7.23113C2.6103 6.62041 3.11332 5.87034 3.58876 5.42017C4.19455 4.84658 4.87344 4.53947 5.83933 4.10254C5.87622 4.08585 5.91353 4.06897 5.95127 4.05188L10.9417 1.79215C10.9797 1.77496 11.0172 1.75798 11.0541 1.74123C11.9084 1.35409 12.4993 1.0863 13.1274 0.978441ZM14.4691 2.92847C14.1359 2.87125 13.7954 2.87125 13.4623 2.92847C13.1155 2.98801 12.7676 3.13733 11.7579 3.59456L6.76741 5.85429C5.65082 6.35989 5.2873 6.53668 4.94912 6.85689C4.68715 7.10495 4.34986 7.60788 4.2198 7.9444C4.04832 8.38809 4.02987 8.68323 3.99632 9.61765C3.88552 12.7041 4.35241 16.3157 5.82535 19.2774C7.27923 22.2009 9.69601 24.4755 13.5768 25.0722C13.7216 25.0944 13.7573 25.0996 13.8447 25.105C13.8937 25.108 14.0376 25.108 14.0866 25.105C14.174 25.0996 14.2098 25.0944 14.3546 25.0722C18.2353 24.4755 20.6521 22.2009 22.106 19.2774C23.5789 16.3157 24.0458 12.7041 23.935 9.61765C23.9015 8.68323 23.883 8.38809 23.7115 7.9444C23.5815 7.60788 23.2442 7.10494 22.9822 6.85689C22.644 6.53668 22.2805 6.35989 21.1639 5.85429L16.1735 3.59456C15.1637 3.13733 14.8158 2.98801 14.4691 2.92847Z" fill="#007AFF"/>
<path fill-rule="evenodd" clip-rule="evenodd" d="M12.7693 11.6201C12.7024 11.8232 12.5127 11.9605 12.2987 11.9605H9.84946C9.36793 11.9605 9.16943 12.578 9.56077 12.8586L11.5309 14.2712C11.7069 14.3973 11.7805 14.6231 11.7128 14.8288L10.9576 17.1224C10.8077 17.5777 11.3273 17.9593 11.7169 17.68L13.7124 16.2492C13.885 16.1255 14.1172 16.1255 14.2898 16.2492L16.2853 17.68C16.6749 17.9593 17.1945 17.5777 17.0446 17.1224L16.2894 14.8288C16.2217 14.6231 16.2954 14.3973 16.4713 14.2712L18.4415 12.8586C18.8328 12.578 18.6343 11.9605 18.1528 11.9605H15.7035C15.4896 11.9605 15.2998 11.8232 15.2329 11.6201L14.4717 9.30808C14.3222 8.85409 13.68 8.85409 13.5305 9.30808L12.7693 11.6201ZM16.7767 9.98197H18.1528C20.5574 9.98197 21.5486 13.0655 19.5944 14.4666L18.5094 15.2445L18.9239 16.5036C19.6725 18.7772 17.0778 20.6827 15.1325 19.288L14.0011 18.4768L12.8698 19.288C10.9245 20.6827 8.32973 18.7772 9.07831 16.5036L9.49288 15.2445L8.40789 14.4666C6.4537 13.0655 7.44489 9.98197 9.84946 9.98197H11.2256L11.6512 8.68931C12.3977 6.42225 15.6046 6.42224 16.351 8.68931L16.7767 9.98197Z" fill="#007AFF"/>
</svg>
