<svg width="27" height="28" viewBox="0 0 27 28" fill="none" xmlns="http://www.w3.org/2000/svg">
<path fill-rule="evenodd" clip-rule="evenodd" d="M27 14C27 21.4558 20.9558 27.5 13.5 27.5C6.04416 27.5 0 21.4558 0 14C0 6.54416 6.04416 0.5 13.5 0.5C20.9558 0.5 27 6.54416 27 14ZM13.9838 10.4663C12.6707 11.0124 10.0464 12.1428 6.11088 13.8575C5.47181 14.1116 5.13704 14.3602 5.10656 14.6033C5.05506 15.0142 5.56955 15.176 6.27015 15.3963C6.36545 15.4262 6.4642 15.4573 6.56543 15.4902C7.25472 15.7142 8.18193 15.9764 8.66395 15.9868C9.10119 15.9962 9.58919 15.816 10.128 15.446C13.8051 12.9639 15.7032 11.7093 15.8223 11.6822C15.9064 11.6632 16.0229 11.6392 16.1019 11.7093C16.1808 11.7795 16.173 11.9124 16.1647 11.948C16.1137 12.1653 14.0941 14.0429 13.049 15.0145C12.7232 15.3174 12.4921 15.5323 12.4448 15.5813C12.339 15.6913 12.2311 15.7952 12.1275 15.8952C11.4871 16.5125 11.0069 16.9754 12.1541 17.7314C12.7053 18.0947 13.1465 18.3951 13.5866 18.6948C14.0672 19.0221 14.5466 19.3486 15.1668 19.7551C15.3248 19.8587 15.4758 19.9663 15.6228 20.0711C16.1821 20.4698 16.6846 20.8281 17.3054 20.771C17.6661 20.7378 18.0388 20.3986 18.228 19.3869C18.6752 16.996 19.5543 11.8158 19.7575 9.6811C19.7753 9.49407 19.7529 9.25472 19.7349 9.14965C19.7169 9.04457 19.6794 8.89487 19.5428 8.78405C19.381 8.6528 19.1313 8.62513 19.0197 8.62709C18.5119 8.63604 17.7329 8.90692 13.9838 10.4663Z" fill="#121314"/>
</svg>
